<svg width="24" height="24" viewBox="0 0 24 24" fill="none" xmlns="http://www.w3.org/2000/svg">
<path d="M9.44098 10.67L6.53298 11.903L5.47298 9.586L7.32098 9.536C7.86398 9.536 8.30698 9.118 8.38098 8.576L8.67698 6.16C8.75098 5.568 8.33198 5 7.73998 4.927C7.44923 4.89138 7.15622 4.97256 6.92525 5.15272C6.69428 5.33289 6.54421 5.59732 6.50798 5.888L6.31098 7.368L4.68398 7.417C4.56486 7.4152 4.44689 7.44051 4.33898 7.491L2.07098 8.304C1.92395 8.35022 1.78963 8.4299 1.67859 8.53679C1.56754 8.64367 1.48279 8.77484 1.43098 8.92C1.37142 9.06204 1.3448 9.21571 1.35311 9.36951C1.36142 9.5233 1.40446 9.67321 1.47898 9.808L3.79598 14.467L2.68698 21.246C2.56398 21.936 3.05698 22.602 3.74698 22.725C3.82098 22.725 3.89498 22.75 3.96898 22.75C4.27385 22.7501 4.56858 22.6406 4.79937 22.4414C5.03015 22.2422 5.18157 21.9666 5.22598 21.665L6.35998 14.763L12.473 12.174L10.28 11.238C9.96037 11.1167 9.67345 10.9226 9.44198 10.671L9.44098 10.67ZM4.57398 4.136C4.69788 4.40324 4.76794 4.69227 4.78014 4.98658C4.79234 5.28089 4.74645 5.57473 4.6451 5.85131C4.54374 6.12789 4.3889 6.3818 4.18942 6.59853C3.98994 6.81527 3.74972 6.9906 3.48248 7.1145C3.21524 7.2384 2.92621 7.30846 2.6319 7.32066C2.33759 7.33286 2.04375 7.28697 1.76717 7.18562C1.49059 7.08426 1.23669 6.92942 1.01995 6.72994C0.803209 6.53046 0.627883 6.29024 0.503981 6.023C0.253749 5.48329 0.228168 4.86627 0.432864 4.30769C0.63756 3.74912 1.05577 3.29473 1.59548 3.0445C2.1352 2.79427 2.75221 2.76869 3.31079 2.97338C3.86937 3.17808 4.32375 3.59629 4.57398 4.136Z" fill="#C1C1C1"/>
<path d="M21.94 6.727L19.672 5.913C19.5632 5.86503 19.4458 5.83985 19.327 5.839L17.675 5.789L17.478 4.311C17.404 3.719 16.837 3.3 16.245 3.349C15.9545 3.38623 15.6906 3.5367 15.5106 3.76764C15.3306 3.99858 15.2491 4.29128 15.284 4.582L15.58 6.997C15.653 7.54 16.097 7.934 16.64 7.959L18.488 8.009L17.428 10.326L11.66 7.885C10.994 7.614 10.255 7.91 9.98396 8.575C9.71296 9.241 10.008 9.98 10.674 10.251L17.626 13.21L18.76 20.112C18.8044 20.4136 18.9558 20.6892 19.1866 20.8884C19.4174 21.0876 19.7121 21.1971 20.017 21.197C20.091 21.197 20.165 21.197 20.239 21.172C20.929 21.049 21.422 20.383 21.299 19.692L20.189 12.914L22.506 8.254C22.654 7.984 22.654 7.638 22.556 7.367C22.5134 7.21794 22.4349 7.08161 22.3273 6.97001C22.2197 6.85841 22.0864 6.77496 21.939 6.727H21.94ZM22.405 1.459C22.9447 1.70937 23.3628 2.16388 23.5674 2.72255C23.772 3.28122 23.7463 3.89829 23.496 4.438C23.2456 4.97772 22.7911 5.39587 22.2324 5.60047C21.6737 5.80508 21.0567 5.77937 20.517 5.529C19.9772 5.27864 19.5591 4.82413 19.3545 4.26546C19.2532 3.98883 19.2074 3.69496 19.2196 3.40062C19.2319 3.10628 19.302 2.81724 19.426 2.55C19.5499 2.28276 19.7253 2.04256 19.9421 1.8431C20.1589 1.64364 20.4129 1.48884 20.6895 1.38753C21.2482 1.18293 21.8652 1.20864 22.405 1.459Z" fill="#C1C1C1"/>
</svg>
