<?xml version="1.0" encoding="UTF-8"?>
<svg id="Layer_1" data-name="Layer 1" xmlns="http://www.w3.org/2000/svg" viewBox="0 0 130.48 27.49">
  <defs>
    <style>
      .cls-1 {
        fill-rule: evenodd;
      }

      .cls-1, .cls-2, .cls-3, .cls-4, .cls-5 {
        stroke-width: 0px;
      }

      .cls-1, .cls-5 {
        fill: #fff;
      }

      .cls-2 {
        fill: #63bd71;
      }

      .cls-3 {
        fill: #cce6d0;
      }

      .cls-4 {
        fill: #9ed2a6;
      }
    </style>
  </defs>
  <path class="cls-5" d="m89.9,24.04c0,.25.04.47.11.65s.18.34.32.44c.14.11.3.16.5.16s.37-.06.51-.16c.14-.12.25-.26.32-.46.07-.19.11-.4.11-.64s-.04-.44-.11-.63c-.07-.19-.18-.34-.32-.44-.14-.11-.32-.16-.51-.16s-.36.06-.5.16-.25.26-.32.44-.11.4-.11.64h0Zm-.35,1.52v-4.04h.35v1.59h.04c.04-.09.09-.19.18-.28.07-.09.18-.18.29-.25s.28-.09.46-.09c.25,0,.47.07.65.2s.34.32.44.55c.11.23.15.51.15.82s-.05.58-.15.82-.25.42-.44.55c-.19.13-.41.2-.65.2-.19,0-.34-.04-.46-.09-.13-.07-.22-.15-.29-.25s-.13-.19-.18-.28h-.05v.56s-.34,0-.34,0Z"/>
  <path class="cls-5" d="m93,26.7c-.07,0-.14,0-.2-.02-.06-.01-.11-.02-.14-.05l.09-.32c.12.04.22.05.32.04.09,0,.18-.05.25-.13.07-.07.14-.19.2-.34l.11-.3-1.11-3.06h.39l.9,2.57h.02l.9-2.57h.39l-1.29,3.52c-.06.15-.12.27-.2.36s-.18.18-.27.22c-.11.05-.22.07-.35.07h0Z"/>
  <path class="cls-5" d="m103.74,25.98v-.13h0c.51,0,.65-.15.65-.69v-1.86c0-.75-.22-1.07-.72-1.07-.32,0-.67.18-1.02.53h0v2.4c0,.51.15.68.67.69v.13h-2.21v-.13c.51,0,.67-.16.67-.69v-2.24c0-.51-.11-.7-.39-.7-.09,0-.23.04-.35.07v-.13l1.29-.39s.09-.02.14-.02c.13,0,.19.08.19.23v.51l.08-.09c.47-.55.86-.77,1.4-.77.77,0,1.15.49,1.15,1.51v2.03c0,.53.16.69.68.69v.13h-2.22Z"/>
  <path class="cls-5" d="m108.06,21.91c-.69,0-1.15.72-1.15,1.8,0,1.15.54,1.94,1.3,1.94.27,0,.55-.13.84-.4h0v-2c0-.85-.36-1.34-.99-1.34h0Zm-.33,4.22c-.55,0-.98-.19-1.32-.58-.33-.39-.49-.89-.49-1.5,0-.67.2-1.2.6-1.68s.9-.71,1.53-.71c.4,0,.71.12.92.33l.08.08v-1.2c0-.65-.11-.86-.44-.86-.08,0-.22.04-.33.07v-.13l1.43-.44h.05c.09,0,.16.07.16.16v5.09c0,.67.11,1,.36,1.07.06.01.2.04.4.04v.13h-1.62v-.44l-.07.07c-.41.36-.82.53-1.24.53h-.01Z"/>
  <path class="cls-5" d="m112.36,21.92c-.57,0-1.03.48-1.06,1.11v.05h2.04v-.05c-.05-.7-.4-1.11-.98-1.11h0Zm.2,4.21c-.57,0-1.03-.2-1.41-.61-.36-.41-.56-.93-.56-1.55,0-.68.19-1.24.55-1.66.36-.43.85-.64,1.46-.64,1.04,0,1.72.65,1.73,1.67h-3.04v.05c0,1.2.6,1.95,1.57,1.95.61,0,1.06-.29,1.36-.89l.11.07c-.09.46-.29.84-.6,1.15-.33.33-.69.48-1.15.48h-.01Z"/>
  <path class="cls-5" d="m114.92,25.98v-5.09c0-.62-.12-.83-.44-.83-.09,0-.25.02-.34.06v-.12l1.39-.53h.09c.09,0,.16.07.16.16v5.54c0,.49.18.68.67.69v.13h-1.54.01Z"/>
  <path class="cls-5" d="m118.92,23.52c-1.16.47-1.51.79-1.51,1.37,0,.39.28.68.65.68.25,0,.54-.13.9-.39h0v-1.69l-.06.02h.01Zm.6,2.61c-.35,0-.53-.2-.53-.62v-.09l-.07.06c-.49.43-.93.65-1.3.65-.67,0-1.07-.4-1.07-1.03,0-.34.18-.64.53-.92.36-.28,1-.58,1.89-.89h.04v-.05c0-.84-.13-1.33-.78-1.33-.56,0-.67.3-.67.55,0,.46-.14.68-.44.68-.25,0-.4-.16-.4-.42,0-.29.14-.53.44-.75.3-.22.71-.33,1.22-.33,1.02,0,1.52.42,1.52,1.27v1.93c0,.55.08.68.22.72h.05c.08,0,.19-.07.29-.19l.09.12c-.32.41-.65.61-1,.61h0l-.02.02h0Z"/>
  <path class="cls-5" d="m99.39,23.52c-1.16.47-1.51.78-1.51,1.37,0,.39.28.68.65.68.25,0,.54-.13.9-.39h0v-1.69l-.06.02h.01Zm.6,2.61c-.35,0-.53-.2-.53-.62v-.09l-.07.06c-.49.43-.93.65-1.3.65-.67,0-1.07-.4-1.07-1.03,0-.34.18-.64.53-.92.36-.28,1-.58,1.89-.89h.04v-.05c0-.84-.13-1.33-.78-1.33-.56,0-.67.3-.67.55,0,.46-.14.68-.44.68-.25,0-.4-.16-.4-.42,0-.29.14-.53.44-.75.3-.22.71-.33,1.22-.33,1.02,0,1.52.42,1.52,1.27v1.93c0,.55.08.68.22.72h.05c.08,0,.19-.06.29-.19l.09.12c-.32.41-.65.61-1,.61h0l-.02.02h0Z"/>
  <path class="cls-1" d="m114.94,16.15c.54,0,1.04-.09,1.47-.28.44-.19.81-.45,1.11-.77.3-.33.54-.72.7-1.18.17-.46.25-.96.25-1.51s-.08-1.05-.25-1.51-.4-.85-.7-1.18-.67-.58-1.11-.77c-.44-.19-.93-.28-1.47-.28s-1.04.09-1.47.28c-.44.19-.81.45-1.11.77-.3.33-.54.72-.7,1.18-.17.46-.25.96-.25,1.51s.08,1.05.25,1.51.4.85.7,1.18.67.58,1.11.77.93.28,1.47.28h0Zm5.58,1.63h-2.04v-1.54h-.05c-.39.57-.93,1.02-1.62,1.34s-1.4.48-2.12.48c-.83,0-1.58-.14-2.26-.43-.67-.29-1.25-.69-1.72-1.2-.48-.51-.84-1.11-1.1-1.79s-.39-1.42-.39-2.22.13-1.55.39-2.23c.26-.69.62-1.29,1.1-1.79.48-.51,1.05-.9,1.72-1.19s1.43-.43,2.26-.43c.77,0,1.5.16,2.18.49s1.2.77,1.57,1.33h.05V.62h2.04v17.15s-.01,0,0,0Zm-15.41-6.26c-.02-.45-.09-.87-.22-1.25s-.32-.71-.58-.99-.58-.5-.96-.66c-.39-.16-.84-.24-1.35-.24s-.96.09-1.37.28c-.42.19-.77.43-1.06.74-.28.29-.51.64-.67,1.01s-.24.74-.24,1.1h6.45Zm-6.44,1.63c0,.47.1.9.31,1.28.2.38.47.72.81.99.33.27.72.48,1.16.64.44.15.9.23,1.36.23.64,0,1.19-.15,1.66-.44s.9-.68,1.29-1.17l1.54,1.18c-1.13,1.47-2.72,2.2-4.76,2.2-.85,0-1.61-.14-2.3-.43s-1.27-.68-1.75-1.19-.84-1.1-1.1-1.79-.39-1.43-.39-2.23.14-1.55.42-2.23c.28-.69.67-1.29,1.16-1.79.49-.51,1.08-.9,1.76-1.19s1.42-.43,2.22-.43c.95,0,1.76.17,2.42.5s1.2.77,1.62,1.3c.42.54.73,1.14.92,1.82.19.67.28,1.36.28,2.05v.73h-8.62v-.03h-.01Zm-7.31-9.98c0-.41.15-.76.44-1.06.29-.29.65-.44,1.05-.44s.76.15,1.06.44c.3.29.44.65.44,1.06s-.15.76-.44,1.06c-.3.29-.65.44-1.06.44s-.76-.15-1.05-.44c-.3-.29-.44-.65-.44-1.06h0Zm.48,3.86h2.04v10.75h-2.04V7.02h0Zm-6.92,1.77h-2.31v-1.77h2.31v-2.41c0-1.44.28-2.51.83-3.21.55-.7,1.5-1.06,2.85-1.06.23,0,.47,0,.71.02.25.02.52.06.81.14l-.23,1.82c-.18-.07-.37-.13-.57-.16s-.39-.05-.59-.05c-.38,0-.68.06-.91.17-.22.11-.41.28-.53.49-.13.21-.21.47-.25.76s-.06.63-.06,1.01v2.47h2.43v1.77h-2.45v8.98h-2.04v-8.98h0Zm-6.56-5.63c0-.41.15-.76.44-1.06.29-.29.65-.44,1.05-.44s.76.15,1.06.44c.3.29.44.65.44,1.06s-.15.76-.44,1.06c-.3.29-.65.44-1.06.44s-.76-.15-1.05-.44-.44-.65-.44-1.06h0Zm.48,3.86h2.04v10.75h-2.04V7.02h0Zm-5.45-6.4h2.04v17.15h-2.04V.62h0Zm-6.13,11.98c-.5,0-.99.03-1.49.08-.51.05-.97.16-1.38.31-.42.15-.76.36-1.02.64-.26.27-.4.62-.4,1.04,0,.62.21,1.07.62,1.34.42.27.98.41,1.69.41.56,0,1.04-.09,1.43-.28s.71-.43.95-.74c.24-.3.42-.64.52-1.01.11-.37.16-.74.16-1.1v-.68h-1.09.01Zm-5.76-4.27c.57-.53,1.24-.93,2-1.19.76-.26,1.51-.4,2.27-.4s1.46.1,2.03.29c.57.2,1.03.46,1.4.79.36.33.63.71.81,1.15.17.43.26.89.26,1.35v5.49c0,.38,0,.73.02,1.04.02.32.04.62.07.91h-1.82c-.05-.54-.07-1.09-.07-1.63h-.05c-.45.7-.99,1.19-1.61,1.47-.62.29-1.34.43-2.16.43-.5,0-.98-.07-1.43-.2-.45-.14-.85-.34-1.19-.61s-.61-.61-.81-1.01-.29-.87-.29-1.4c0-.7.16-1.28.47-1.75s.73-.85,1.27-1.15c.54-.29,1.16-.51,1.88-.64s1.49-.19,2.3-.19h1.5v-.45c0-.27-.05-.54-.16-.82s-.27-.53-.48-.74c-.21-.22-.48-.39-.79-.52-.32-.13-.7-.19-1.13-.19-.39,0-.74.04-1.03.11-.29.08-.56.17-.81.28-.23.11-.45.24-.66.4-.19.14-.38.29-.57.43l-1.23-1.27h0v.02h0Zm-3.13,9.44h-2.04v-1.66h-.05c-.26.57-.7,1.04-1.34,1.4-.64.36-1.37.53-2.2.53-.53,0-1.03-.08-1.5-.24-.46-.15-.88-.41-1.24-.74s-.64-.76-.85-1.28-.32-1.14-.32-1.85v-6.92h2.04v6.35c0,.5.07.93.2,1.28.14.36.32.64.54.86.22.22.49.38.78.48.29.1.6.15.92.15.42,0,.82-.07,1.18-.2.36-.14.68-.35.95-.65.27-.29.48-.67.64-1.12.15-.45.23-.99.23-1.61v-5.54h2.04v10.75h.02Zm-20.65-2.04c.88,0,1.68-.16,2.42-.49.73-.33,1.36-.77,1.88-1.34.52-.57.93-1.24,1.21-2.01.29-.77.43-1.6.43-2.47s-.15-1.64-.44-2.38c-.29-.74-.71-1.38-1.24-1.93-.53-.54-1.16-.98-1.88-1.29s-1.52-.48-2.38-.48-1.63.16-2.35.48c-.72.32-1.34.75-1.87,1.29s-.95,1.18-1.25,1.92c-.3.73-.45,1.52-.45,2.35,0,.88.14,1.7.43,2.47s.69,1.44,1.21,2.02c.52.57,1.15,1.03,1.87,1.36.73.33,1.53.5,2.41.5h0Zm8.23,2.04h-8.14c-1.13,0-2.21-.2-3.22-.61s-1.9-.98-2.65-1.7c-.76-.73-1.35-1.59-1.79-2.6-.44-1.01-.66-2.11-.66-3.3s.21-2.27.64-3.28,1.01-1.88,1.76-2.62c.75-.74,1.63-1.32,2.63-1.74,1.01-.42,2.1-.62,3.28-.62s2.2.2,3.19.61c.99.41,1.86.97,2.6,1.69.74.72,1.33,1.57,1.76,2.54.43.98.65,2.04.65,3.19,0,.68-.08,1.35-.24,2.01s-.39,1.27-.7,1.85c-.31.57-.7,1.09-1.16,1.54s-.99.82-1.58,1.09v.05h3.65v1.91h-.02,0Z"/>
  <path class="cls-2" d="m128.05,3.03h0c-1.07,0-1.95.88-1.95,1.96,0,.01,0,.02-.02.02s-.02-.01-.02-.02h0c0-1.08-.88-1.96-1.96-1.96,0,0-.02,0-.02-.02s0-.02.02-.02h0c1.07,0,1.95-.88,1.95-1.96,0,0,0-.02.02-.02s.02,0,.02.02c0,1.08.88,1.96,1.96,1.96,0,0,.02,0,.02.02s0,.02-.02.02h0Z"/>
  <path class="cls-4" d="m128.05,9.23h0c-1.07,0-1.95.88-1.95,1.96,0,.01,0,.02-.02.02s-.02-.01-.02-.02h0c0-1.08-.88-1.96-1.96-1.96,0,0-.02-.01-.02-.02s0-.02.02-.02h0c1.07,0,1.95-.88,1.95-1.96,0-.01,0-.02.02-.02s.02.01.02.02c0,1.08.88,1.96,1.96,1.96,0,0,.02.01.02.02s0,.02-.02.02h0Z"/>
  <path class="cls-3" d="m128.05,15.41h0c-1.07,0-1.95.88-1.95,1.96,0,.01,0,.02-.02.02s-.02-.01-.02-.02h0c0-1.08-.88-1.96-1.96-1.96,0,0-.02-.01-.02-.02s0-.02.02-.02h0c1.07,0,1.95-.88,1.95-1.96,0-.01,0-.02.02-.02s.02.01.02.02c0,1.08.88,1.96,1.96,1.96,0,0,.02.01.02.02s0,.02-.02.02h0Z"/>
  <g>
    <path class="cls-3" d="m3.36,17.18v-5.4h.61v2h.06c.04-.07.11-.15.19-.28.08-.11.19-.21.34-.3s.36-.14.61-.14c.34,0,.62.08.88.26s.45.41.59.73.22.69.22,1.1-.07.8-.22,1.12c-.14.32-.34.55-.59.73s-.55.26-.87.26c-.26,0-.47-.04-.61-.14-.15-.1-.28-.19-.36-.3s-.15-.21-.19-.28h-.07v.62h-.59,0Zm.61-2.03c0,.3.04.58.14.81s.22.41.39.55.39.19.62.19.47-.07.65-.21.3-.32.39-.56c.1-.23.14-.5.14-.79s-.04-.55-.14-.77-.22-.41-.39-.55c-.18-.14-.39-.19-.65-.19s-.45.07-.62.19-.3.3-.39.54-.14.5-.14.79Z"/>
    <path class="cls-3" d="m10.3,15.51v-2.4h.61v4.05h-.61v-.69h-.04c-.1.21-.23.39-.44.52s-.44.22-.74.22c-.25,0-.47-.06-.66-.17s-.34-.28-.45-.51c-.11-.22-.17-.51-.17-.85v-2.58h.61v2.54c0,.3.08.52.25.7s.37.26.62.26c.15,0,.3-.04.47-.11s.29-.19.4-.36.17-.37.17-.62h0Z"/>
    <path class="cls-3" d="m12.33,12.46c-.11,0-.22-.04-.3-.12s-.14-.18-.14-.3.04-.22.14-.3c.08-.08.19-.12.3-.12s.22.04.3.12.14.18.14.3-.04.22-.14.3c-.08.08-.19.12-.3.12Zm-.32,4.73v-4.05h.61v4.05h-.61Z"/>
    <path class="cls-3" d="m14.37,11.78v5.4h-.61v-5.4h.61Z"/>
    <path class="cls-3" d="m17.2,13.13v.52h-2.05v-.52h2.05Zm-1.46-.98h.61v3.86c0,.18.03.3.07.4.06.1.11.15.19.18.08.03.17.04.26.04h.17s.07-.01.11-.01l.12.56s-.1.03-.18.06c-.07.01-.17.03-.28.03-.18,0-.34-.04-.51-.11s-.3-.19-.4-.34-.17-.34-.17-.59v-4.04h0v-.03Z"/>
    <path class="cls-3" d="m21.67,17.26c-.36,0-.68-.1-.94-.26-.28-.18-.48-.43-.62-.73s-.22-.68-.22-1.1.07-.79.22-1.1.36-.56.62-.73c.28-.18.59-.26.94-.26s.68.1.94.26c.28.18.48.43.62.73.14.3.22.69.22,1.1s-.07.79-.22,1.1-.36.55-.62.73c-.28.18-.59.26-.94.26Zm0-.56c.28,0,.5-.07.66-.22s.3-.33.39-.56.12-.48.12-.74-.04-.52-.12-.76-.22-.43-.39-.56c-.18-.14-.4-.22-.66-.22s-.5.07-.66.22-.3.33-.39.56c-.08.23-.12.48-.12.76s.04.52.12.74c.08.23.22.43.39.56s.4.22.66.22Z"/>
    <path class="cls-3" d="m25,14.73v2.44h-.61v-4.05h.59v.63h.06c.1-.21.23-.37.43-.5.19-.12.44-.19.73-.19s.51.06.7.17.36.28.47.51c.11.22.17.51.17.85v2.58h-.61v-2.54c0-.32-.08-.56-.25-.74s-.39-.26-.66-.26c-.19,0-.37.04-.52.14s-.28.22-.36.39-.14.36-.14.61h.01v-.03Z"/>
  </g>
</svg>