<svg width="24" height="24" viewBox="0 0 24 24" fill="none" xmlns="http://www.w3.org/2000/svg">
<path d="M23.477 7.694C23.082 7.135 22.165 6.899 21.608 7.376L20.342 8.46C16.632 6.627 12.922 4.797 9.21296 2.963C7.56196 2.146 6.70096 4.907 8.32896 5.711L12.34 7.691L9.50996 13.128C9.49096 13.167 9.47796 13.208 9.45996 13.248L2.05296 9.843C0.392963 9.081 -0.484037 11.774 1.15396 12.528L10.017 16.602L10.517 19.044C9.45521 18.5675 8.39652 18.0841 7.34096 17.594C5.69796 16.827 4.26096 19.266 5.91296 20.037C7.94396 20.985 9.99496 21.889 12.036 22.813C13.304 23.385 14.441 22.08 14.151 21.105V21.085C13.798 19.359 13.443 17.633 13.091 15.906C13.167 15.813 13.243 15.716 13.301 15.606L16.381 9.688L19.786 11.368C20.17 11.559 20.509 11.551 20.787 11.423C20.959 11.387 21.124 11.313 21.265 11.193C21.896 10.653 22.525 10.112 23.158 9.573C23.713 9.096 23.925 8.331 23.478 7.694H23.477Z" fill="#C1C1C1"/>
<path d="M16.482 5.579C16.775 5.65418 17.0799 5.67092 17.3793 5.62826C17.6788 5.5856 17.9669 5.48438 18.2272 5.33037C18.4875 5.17637 18.715 4.97259 18.8966 4.73069C19.0781 4.48878 19.2103 4.21348 19.2855 3.9205C19.3607 3.62752 19.3774 3.3226 19.3347 3.02315C19.2921 2.7237 19.1909 2.43559 19.0369 2.17526C18.8828 1.91493 18.6791 1.68749 18.4372 1.50591C18.1953 1.32433 17.92 1.19218 17.627 1.117L17.611 1.114C17.0225 0.971204 16.4015 1.06592 15.8824 1.37763C15.3632 1.68934 14.9877 2.19298 14.8372 2.7795C14.6867 3.36602 14.7732 3.98823 15.078 4.51144C15.3829 5.03464 15.8815 5.41673 16.466 5.575L16.482 5.579Z" fill="#C1C1C1"/>
</svg>
