<svg width="24" height="24" viewBox="0 0 24 24" fill="none" xmlns="http://www.w3.org/2000/svg">
<path d="M9.81468 10.0948C9.13548 10.0948 8.59558 10.6869 8.59558 11.4098C8.59558 12.1325 9.14418 12.7334 9.81468 12.7334C10.494 12.7334 11.0339 12.1326 11.0339 11.4097C11.0513 10.6869 10.4939 10.0948 9.81468 10.0948ZM14.1862 10.0948C13.507 10.0948 12.9671 10.6869 12.9671 11.4098C12.9671 12.1325 13.5157 12.7334 14.1862 12.7334C14.8655 12.7334 15.4054 12.1326 15.4054 11.4097C15.4054 10.6869 14.8654 10.0948 14.1862 10.0948Z" fill="#C1C1C1"/>
<path d="M20.0035 0.0538998H3.98896C2.64006 0.0636998 1.55066 1.1594 1.55066 2.5096V2.5188V18.6813C1.55066 20.0346 2.64516 21.1321 3.99716 21.1371H17.5391L16.9121 18.9251L18.4361 20.3446L19.8816 21.6857L22.4506 23.9499V2.5096C22.4506 1.1564 21.3556 0.0587998 20.0035 0.0538998ZM15.3881 15.6595L14.6043 14.6928C15.4933 14.4783 16.2403 13.9721 16.757 13.2831L16.764 13.2734C16.2763 13.5956 15.806 13.822 15.388 13.97C14.4302 14.3845 13.3147 14.6256 12.1429 14.6256C11.5949 14.6259 11.0482 14.5725 10.5106 14.4663L10.5637 14.4751C9.57586 14.2749 8.69886 13.9586 7.88726 13.5344L7.94246 13.5607L7.82926 13.4997L7.78576 13.4649C7.56806 13.3429 7.44616 13.2559 7.44616 13.2559C7.44616 13.2559 8.02086 14.2139 9.53616 14.6667C9.18776 15.1195 8.74366 15.6595 8.74366 15.6595C6.10506 15.5724 5.09486 13.8394 5.09486 13.8394C5.09486 9.999 6.81906 6.8726 6.81906 6.8726C8.53466 5.5925 10.1718 5.6273 10.1718 5.6273L10.2938 5.7753C8.14276 6.3936 7.15876 7.3429 7.15876 7.3429C7.15876 7.3429 7.41996 7.1949 7.85536 6.9945C8.64396 6.6231 9.55916 6.3559 10.5211 6.2411L10.5637 6.2369L10.7727 6.2195C11.1649 6.1635 11.6179 6.1315 12.0783 6.1315C13.8041 6.1315 15.425 6.5805 16.8305 7.3682L16.7814 7.3429C16.7814 7.3429 15.8321 6.4372 13.8031 5.8015L13.9773 5.6099C13.9773 5.6099 15.6058 5.5751 17.33 6.8727C17.33 6.8727 19.0455 9.9903 19.0455 13.8394C19.0455 13.8394 18.0354 15.5637 15.3881 15.6508V15.6595Z" fill="#C1C1C1"/>
</svg>
