<svg width="21" height="20" viewBox="0 0 21 20" fill="none" xmlns="http://www.w3.org/2000/svg">
<path fill-rule="evenodd" clip-rule="evenodd" d="M3.99996 0.833496C4.4602 0.833496 4.83329 1.20659 4.83329 1.66683V1.9975C5.43963 1.81074 6.25683 1.66683 7.33329 1.66683C8.7445 1.66683 9.91388 2.13473 10.9297 2.54119C10.9452 2.5474 10.9607 2.55359 10.9761 2.55977C12.0329 2.98246 12.9327 3.3335 14 3.3335C15.156 3.3335 15.8829 3.14114 16.2946 2.97643C16.5013 2.89378 16.6324 2.81659 16.7018 2.77033C16.7363 2.74729 16.7561 2.73157 16.7627 2.72616C17.0008 2.50237 17.3488 2.43793 17.6522 2.5636C17.9636 2.69258 18.1666 2.99644 18.1666 3.3335V12.5002C18.1666 12.7212 18.0788 12.9331 17.9225 13.0894L17.3333 12.5002C17.9225 13.0894 17.9221 13.0899 17.9217 13.0903L17.9208 13.0912L17.9189 13.093L17.915 13.0969L17.906 13.1056C17.8996 13.1117 17.8922 13.1186 17.8839 13.1261C17.8672 13.1413 17.8468 13.1591 17.8224 13.1792C17.7734 13.2195 17.7086 13.2689 17.6263 13.3237C17.4613 13.4337 17.2278 13.5649 16.9136 13.6906C16.2837 13.9425 15.3439 14.1668 14 14.1668C12.5888 14.1668 11.4194 13.6989 10.4036 13.2925L10.3571 13.2739C9.30039 12.8512 8.40054 12.5002 7.33329 12.5002C6.17722 12.5002 5.45039 12.6925 5.03862 12.8572C4.95931 12.8889 4.89113 12.9199 4.83329 12.9485L4.83329 18.3335C4.83329 18.7937 4.4602 19.1668 3.99996 19.1668C3.53972 19.1668 3.16663 18.7937 3.16663 18.3335L3.16663 12.501C3.16663 12.5004 3.16663 12.4999 3.16663 12.4993L3.16663 3.33385C3.16663 3.33361 3.16663 3.33338 3.16663 3.33314L3.16663 1.66683C3.16663 1.20659 3.53972 0.833496 3.99996 0.833496ZM4.83329 3.78187L4.83329 11.1642C5.43963 10.9774 6.25683 10.8335 7.33329 10.8335C8.7445 10.8335 9.91388 11.3014 10.9297 11.7079L10.9761 11.7264C12.0329 12.1491 12.9327 12.5002 14 12.5002C15.156 12.5002 15.8829 12.3078 16.2946 12.1431C16.3739 12.1114 16.4421 12.0805 16.5 12.0518V4.66949C15.8936 4.85625 15.0764 5.00016 14 5.00016C12.5888 5.00016 11.4194 4.53226 10.4036 4.1258C10.388 4.11959 10.3726 4.1134 10.3571 4.10723C9.30039 3.68453 8.40054 3.3335 7.33329 3.3335C6.17722 3.3335 5.45039 3.52585 5.03862 3.69056C4.95931 3.72228 4.89113 3.7532 4.83329 3.78187Z" fill="currentcolor"/>
</svg>