<svg viewBox="0 0 24 24" fill="none" xmlns="http://www.w3.org/2000/svg">
<path fill-rule="evenodd" clip-rule="evenodd" d="M2.09177 10.2804C2.0462 10.2804 2.03495 10.2575 2.05764 10.2236L2.29633 9.91666C2.31883 9.88254 2.37583 9.85985 2.4212 9.85985H6.47814C6.5237 9.85985 6.53495 9.89398 6.51227 9.9281L6.31914 10.2236C6.29645 10.2575 6.23964 10.2917 6.20552 10.2917L2.09177 10.2804ZM0.375767 11.3257C0.330392 11.3257 0.318954 11.3032 0.341642 11.2689L0.580329 10.9622C0.603017 10.928 0.659829 10.9054 0.705392 10.9054H5.88714C5.93252 10.9054 5.95539 10.9395 5.94395 10.9736L5.85302 11.2462C5.84177 11.2918 5.7962 11.3145 5.75083 11.3145L0.375767 11.3257ZM3.12564 12.3712C3.08027 12.3712 3.06902 12.3371 3.0917 12.303L3.2507 12.0189C3.27358 11.9848 3.31895 11.9509 3.36452 11.9509H5.63702C5.68258 11.9509 5.70527 11.9848 5.70527 12.0304L5.68277 12.303C5.68277 12.3485 5.6372 12.3827 5.60308 12.3827L3.12564 12.3712ZM14.9213 10.0759C14.2052 10.2577 13.7166 10.394 13.0121 10.5757C12.8415 10.6213 12.8303 10.6325 12.6825 10.4621C12.5121 10.269 12.387 10.1439 12.1485 10.0303C11.4325 9.67816 10.7393 9.78035 10.0916 10.2009C9.31895 10.7008 8.92127 11.4394 8.93252 12.3598C8.94377 13.269 9.56889 14.019 10.4666 14.144C11.2393 14.2462 11.8871 13.9734 12.3985 13.394C12.5006 13.269 12.5916 13.1327 12.7052 12.9735H10.512C10.2735 12.9735 10.2167 12.8257 10.2962 12.6326C10.444 12.2803 10.7166 11.6895 10.8756 11.394C10.9099 11.3257 10.9894 11.2121 11.1598 11.2121H15.2961C15.2736 11.519 15.2736 11.8258 15.228 12.1327C15.103 12.9508 14.7962 13.7008 14.2961 14.3599C13.4779 15.4395 12.4099 16.1098 11.0575 16.2917C9.94389 16.4394 8.90983 16.2234 8.00083 15.5417C7.15989 14.9053 6.6827 14.0644 6.55764 13.019C6.40989 11.7804 6.77345 10.6667 7.52345 9.68941C8.33027 8.63266 9.39845 7.96216 10.7053 7.72348C11.7735 7.53035 12.7961 7.65541 13.7166 8.28035C14.3188 8.67804 14.7506 9.22348 15.0347 9.88254C15.103 9.98491 15.0576 10.0417 14.9211 10.0757L14.9213 10.0759Z" fill="currentcolor"/>
<path d="M18.6826 16.3599C17.6485 16.3371 16.7052 16.0417 15.9098 15.3598C15.2393 14.7804 14.8189 14.0417 14.6826 13.1666C14.4781 11.8826 14.8302 10.7462 15.6031 9.73499C16.4326 8.64393 17.4325 8.0758 18.7849 7.83711C19.9439 7.63274 21.0349 7.74636 22.0234 8.41668C22.9212 9.03036 23.4779 9.85986 23.6256 10.9507C23.8187 12.4849 23.3757 13.7349 22.3187 14.8031C21.5687 15.5644 20.6483 16.0417 19.5916 16.2576C19.2848 16.3144 18.9779 16.3258 18.6826 16.3599ZM21.3871 11.769C21.3758 11.6212 21.3758 11.5076 21.3529 11.394C21.1486 10.269 20.1143 9.63261 19.0349 9.88274C17.9779 10.1212 17.2962 10.7917 17.0462 11.8599C16.8417 12.7462 17.2735 13.644 18.0916 14.0076C18.7167 14.2804 19.3416 14.2462 19.9439 13.9395C20.8416 13.4736 21.3302 12.7462 21.3871 11.769Z" fill="currentcolor"/>
</svg>