<svg width="20" height="20" viewBox="0 0 20 20" fill="none" xmlns="http://www.w3.org/2000/svg">
<path fill-rule="evenodd" clip-rule="evenodd" d="M5.29889 6.86925C4.04365 7.91689 3.16523 9.14798 2.72134 9.85083C2.69189 9.89746 2.67129 9.93013 2.65407 9.95848C2.64271 9.97718 2.63522 9.99013 2.6302 9.99915C2.6302 9.99949 2.6302 9.99982 2.6302 10.0002C2.6302 10.0005 2.6302 10.0008 2.6302 10.0012C2.63522 10.0102 2.64272 10.0231 2.65407 10.0418C2.67129 10.0702 2.69189 10.1029 2.72134 10.1495C3.16523 10.8524 4.04365 12.0834 5.29889 13.1311C6.55217 14.1771 8.13088 15.0002 10.0003 15.0002C11.8698 15.0002 13.4485 14.1771 14.7018 13.1311C15.957 12.0834 16.8354 10.8523 17.2793 10.1495C17.3088 10.1029 17.3294 10.0702 17.3466 10.0418C17.3579 10.0231 17.3654 10.0102 17.3705 10.0012C17.3705 10.0008 17.3705 10.0005 17.3705 10.0002C17.3705 9.99983 17.3705 9.99949 17.3705 9.99915C17.3654 9.99013 17.3579 9.97719 17.3466 9.95848C17.3294 9.93013 17.3088 9.89746 17.2793 9.85083C16.8354 9.14798 15.957 7.91689 14.7018 6.86925C13.4485 5.82325 11.8698 5.00016 10.0003 5.00016C8.13088 5.00016 6.55217 5.82325 5.29889 6.86925ZM4.23095 5.58969C5.67145 4.38743 7.6156 3.3335 10.0003 3.3335C12.3851 3.3335 14.3292 4.38743 15.7697 5.58969C17.2082 6.79031 18.1945 8.17873 18.6885 8.96087C18.695 8.97121 18.7017 8.98175 18.7086 8.99253C18.8066 9.14681 18.9338 9.34713 18.9982 9.6278C19.0501 9.85443 19.0501 10.1459 18.9982 10.3725C18.9338 10.6532 18.8066 10.8535 18.7086 11.0078C18.7017 11.0186 18.695 11.0291 18.6885 11.0395C18.1945 11.8216 17.2082 13.21 15.7697 14.4106C14.3292 15.6129 12.3851 16.6668 10.0003 16.6668C7.6156 16.6668 5.67145 15.6129 4.23095 14.4106C2.79241 13.21 1.80613 11.8216 1.31217 11.0395C1.30565 11.0291 1.29895 11.0186 1.2921 11.0078C1.19409 10.8535 1.06682 10.6532 1.00249 10.3725C0.950545 10.1459 0.950545 9.85443 1.00249 9.6278C1.06682 9.34712 1.19409 9.14681 1.2921 8.99252C1.29895 8.98175 1.30565 8.9712 1.31217 8.96087C1.80613 8.17873 2.79241 6.79031 4.23095 5.58969ZM10.0003 8.3335C9.07985 8.3335 8.33366 9.07969 8.33366 10.0002C8.33366 10.9206 9.07985 11.6668 10.0003 11.6668C10.9208 11.6668 11.667 10.9206 11.667 10.0002C11.667 9.07969 10.9208 8.3335 10.0003 8.3335ZM6.66699 10.0002C6.66699 8.15921 8.15938 6.66683 10.0003 6.66683C11.8413 6.66683 13.3337 8.15921 13.3337 10.0002C13.3337 11.8411 11.8413 13.3335 10.0003 13.3335C8.15938 13.3335 6.66699 11.8411 6.66699 10.0002Z" fill="currentcolor"/>
</svg>