<svg width="20" height="20" viewBox="0 0 20 20" fill="none" xmlns="http://www.w3.org/2000/svg">
<g clip-path="url(#clip0_443_1492)">
<path fill-rule="evenodd" clip-rule="evenodd" d="M10 2.50016C5.8579 2.50016 2.50004 5.85803 2.50004 10.0002C2.50004 14.1423 5.8579 17.5002 10 17.5002C14.1422 17.5002 17.5 14.1423 17.5 10.0002C17.5 5.85803 14.1422 2.50016 10 2.50016ZM0.833374 10.0002C0.833374 4.93755 4.93743 0.833496 10 0.833496C15.0626 0.833496 19.1667 4.93755 19.1667 10.0002C19.1667 15.0628 15.0626 19.1668 10 19.1668C4.93743 19.1668 0.833374 15.0628 0.833374 10.0002ZM9.99673 6.43639C8.89961 5.65938 7.38948 5.5541 6.18983 6.5791C4.81128 7.75697 4.60629 9.75156 5.70212 11.1617C6.28193 11.9078 7.69038 13.2145 8.56941 14.01L8.58775 14.0266C8.72115 14.1474 8.85549 14.269 8.98013 14.3645C9.12118 14.4726 9.29349 14.5826 9.51387 14.6493C9.82522 14.7437 10.1691 14.7437 10.4805 14.6493C10.7009 14.5826 10.8732 14.4726 11.0142 14.3645C11.1389 14.269 11.2732 14.1474 11.4066 14.0266L11.425 14.01C12.304 13.2145 13.7124 11.9078 14.2923 11.1617C15.3807 9.76103 15.2122 7.74894 13.7959 6.57179C12.5878 5.56775 11.092 5.65965 9.99673 6.43639ZM9.36392 8.09843C8.77609 7.41121 7.90672 7.30434 7.27249 7.84623C6.56351 8.45201 6.4746 9.43958 7.01812 10.139C7.48833 10.744 8.76901 11.9429 9.68773 12.7742C9.84704 12.9184 9.9301 12.9927 9.99382 13.0415C9.99497 13.0424 9.99609 13.0433 9.99719 13.0441C9.99828 13.0433 9.9994 13.0424 10.0005 13.0415C10.0643 12.9927 10.1473 12.9184 10.3066 12.7742C11.2254 11.9429 12.506 10.744 12.9762 10.139C13.5271 9.43011 13.4377 8.44128 12.7305 7.85354C12.0698 7.30437 11.212 7.41856 10.6305 8.09843C10.4721 8.28352 10.2408 8.39008 9.99719 8.39008C9.75362 8.39008 9.52224 8.28352 9.36392 8.09843Z" fill="white"/>
</g>
<defs>
<clipPath id="clip0_443_1492">
<rect width="20" height="20" fill="currentcolor"/>
</clipPath>
</defs>
</svg>