<svg width="20" height="20" viewBox="0 0 20 20" fill="none" xmlns="http://www.w3.org/2000/svg">
<g clip-path="url(#clip0_443_1488)">
<path fill-rule="evenodd" clip-rule="evenodd" d="M10 2.50016C5.85787 2.50016 2.50001 5.85803 2.50001 10.0002C2.50001 14.1423 5.85787 17.5002 10 17.5002C14.1421 17.5002 17.5 14.1423 17.5 10.0002C17.5 5.85803 14.1421 2.50016 10 2.50016ZM0.833344 10.0002C0.833344 4.93755 4.9374 0.833496 10 0.833496C15.0626 0.833496 19.1667 4.93755 19.1667 10.0002C19.1667 15.0628 15.0626 19.1668 10 19.1668C4.9374 19.1668 0.833344 15.0628 0.833344 10.0002ZM6.25001 7.50016C6.25001 6.80981 6.80965 6.25016 7.50001 6.25016C8.19037 6.25016 8.75001 6.80981 8.75001 7.50016C8.75001 8.19052 8.19037 8.75016 7.50001 8.75016C6.80965 8.75016 6.25001 8.19052 6.25001 7.50016ZM11.25 7.50016C11.25 6.80981 11.8097 6.25016 12.5 6.25016C13.1904 6.25016 13.75 6.80981 13.75 7.50016C13.75 8.19052 13.1904 8.75016 12.5 8.75016C11.8097 8.75016 11.25 8.19052 11.25 7.50016Z" fill="white"/>
<path d="M7.33073 11.1634C7.05391 10.7982 6.53371 10.7249 6.16668 11.0002C5.79849 11.2763 5.72387 11.7986 6.00001 12.1668L6.00181 12.1692L6.0041 12.1722L6.0101 12.1801L6.02785 12.2028C6.04222 12.2209 6.06168 12.245 6.08614 12.2742C6.13501 12.3324 6.20418 12.4113 6.29288 12.5038C6.46961 12.6882 6.72787 12.9311 7.06195 13.1741C7.7269 13.6577 8.72873 14.1668 10 14.1668C11.2713 14.1668 12.2731 13.6577 12.9381 13.1741C13.2721 12.9311 13.5304 12.6882 13.7071 12.5038C13.7958 12.4113 13.865 12.3324 13.9139 12.2742C13.9383 12.245 13.9578 12.2209 13.9722 12.2028L13.9899 12.1801L13.9959 12.1722L13.9982 12.1692L13.9992 12.1679L14 12.1668C14.2762 11.7986 14.2015 11.2763 13.8333 11.0002C13.4663 10.7249 12.9461 10.7982 12.6693 11.1634L12.6654 11.1683C12.6605 11.1746 12.651 11.1863 12.6373 11.2027C12.6096 11.2356 12.5649 11.287 12.5038 11.3507C12.3811 11.4787 12.1966 11.6525 11.9578 11.8262C11.4769 12.1759 10.8121 12.5002 10 12.5002C9.18795 12.5002 8.52312 12.1759 8.04224 11.8262C7.8034 11.6525 7.61895 11.4787 7.4962 11.3507C7.43517 11.287 7.3904 11.2356 7.36277 11.2027C7.34898 11.1863 7.33955 11.1746 7.33459 11.1683L7.33073 11.1634Z" fill="white"/>
</g>
<defs>
<clipPath id="clip0_443_1488">
<rect width="20" height="20" fill="currentcolor"/>
</clipPath>
</defs>
</svg>