<svg width="30px" height="26px" viewBox="0 0 480 374" version="1.1" xmlns="http://www.w3.org/2000/svg" xmlns:xlink="http://www.w3.org/1999/xlink">
<g id="Page-1" stroke="none" stroke-width="1" fill="none" fill-rule="evenodd">
<g id="noun-code-2821480" transform="translate(0.805394, 0.426000)" fill="#FFFFFF" fill-rule="nonzero">
<path d="M147.244606,2.84217094e-14 C181.623606,2.84217094e-14 181.623606,52.273 147.244606,52.273 C133.717606,52.273 120.224606,57.1402 120.224606,72.679 L120.224606,146.652 C120.224606,157.082 114.107406,166.09 105.271606,170.285 L77.4866063,186.57 L107.263606,204.023 C115.509706,208.8628 120.122606,217.562 120.126606,226.492 L120.224262,300.465 C120.224262,316.008 133.716262,320.863 147.244262,320.863 C181.623262,320.863 181.623262,373.14 147.244262,373.14 C104.451262,373.14 67.9472623,345.355 67.9472623,300.464 L67.9472623,241.351 L13.1702623,209.226 C-4.04073767,199.4955 -4.62273767,174.351 12.8382323,164.105 L67.9472323,131.796 L67.9472323,72.679 C67.9472323,27.781 104.451232,2.84217094e-14 147.244232,2.84217094e-14 L147.244606,2.84217094e-14 Z M331.134606,2.84217094e-14 C296.755606,2.84217094e-14 296.755606,52.273 331.134606,52.273 C344.661606,52.273 358.161606,57.1402 358.161606,72.679 L358.161606,146.652 C358.161606,157.082 364.278806,166.09 373.114606,170.285 L400.895606,186.57 L371.125606,204.023 C362.871706,208.8628 358.266606,217.562 358.262606,226.492 L358.164949,300.465 C358.164949,316.008 344.664949,320.863 331.137949,320.863 C296.758949,320.863 296.758949,373.14 331.137949,373.14 C373.938949,373.14 410.434949,345.355 410.434949,300.464 L410.434949,241.351 L465.219949,209.226 C482.422949,199.4955 483.020949,174.351 465.551979,164.105 L410.434979,131.796 L410.434979,72.679 C410.434979,27.781 373.938979,2.84217094e-14 331.137979,2.84217094e-14 L331.134606,2.84217094e-14 Z" id="Shape"/>
</g>
</g>
</svg>