<svg width="24" height="24" viewBox="0 0 24 24" fill="none" xmlns="http://www.w3.org/2000/svg">
<path d="M20.317 4.22051C18.7873 3.51863 17.147 3.00152 15.4319 2.70534C15.4007 2.69963 15.3695 2.71391 15.3534 2.74248C15.1424 3.1177 14.9087 3.6072 14.7451 3.99194C12.9004 3.71577 11.0652 3.71577 9.25832 3.99194C9.09465 3.59864 8.85248 3.1177 8.64057 2.74248C8.62448 2.71487 8.59328 2.70058 8.56205 2.70534C6.84791 3.00057 5.20756 3.51769 3.67694 4.22051C3.66368 4.22623 3.65233 4.23576 3.64479 4.24813C0.533392 8.89649 -0.31895 13.4306 0.0991801 17.9085C0.101072 17.9304 0.11337 17.9514 0.130398 17.9647C2.18321 19.4722 4.17171 20.3874 6.12328 20.994C6.15451 21.0036 6.18761 20.9922 6.20748 20.9664C6.66913 20.336 7.08064 19.6713 7.43348 18.9722C7.4543 18.9313 7.43442 18.8827 7.39186 18.8665C6.73913 18.6189 6.1176 18.317 5.51973 17.9742C5.47244 17.9466 5.46865 17.8789 5.51216 17.8466C5.63797 17.7523 5.76382 17.6542 5.88395 17.5552C5.90569 17.5371 5.93598 17.5332 5.96153 17.5447C9.88928 19.3379 14.1415 19.3379 18.023 17.5447C18.0485 17.5323 18.0788 17.5361 18.1015 17.5542C18.2216 17.6532 18.3475 17.7523 18.4742 17.8466C18.5177 17.8789 18.5149 17.9466 18.4676 17.9742C17.8697 18.3237 17.2482 18.6189 16.5945 18.8656C16.552 18.8818 16.533 18.9313 16.5538 18.9722C16.9143 19.6703 17.3258 20.335 17.7789 20.9655C17.7978 20.9922 17.8319 21.0036 17.8631 20.994C19.8241 20.3874 21.8126 19.4722 23.8654 17.9647C23.8834 17.9514 23.8948 17.9313 23.8967 17.9094C24.3971 12.7325 23.0585 8.23558 20.3482 4.24908C20.3416 4.23576 20.3303 4.22623 20.317 4.22051ZM8.02002 15.1819C6.8375 15.1819 5.86313 14.0963 5.86313 12.763C5.86313 11.4297 6.8186 10.3441 8.02002 10.3441C9.23087 10.3441 10.1958 11.4392 10.1769 12.763C10.1769 14.0963 9.22141 15.1819 8.02002 15.1819ZM15.9947 15.1819C14.8123 15.1819 13.8379 14.0963 13.8379 12.763C13.8379 11.4297 14.7933 10.3441 15.9947 10.3441C17.2056 10.3441 18.1705 11.4392 18.1516 12.763C18.1516 14.0963 17.2056 15.1819 15.9947 15.1819Z" fill="currentcolor"/>
</svg>