<svg width="24" height="24" viewBox="0 0 24 24" fill="none" xmlns="http://www.w3.org/2000/svg">
<path fill-rule="evenodd" clip-rule="evenodd" d="M7.16147 1H16.8386C17.3657 0.999983 17.8205 0.999967 18.195 1.03057C18.5904 1.06287 18.9836 1.13419 19.362 1.32698C19.9265 1.6146 20.3854 2.07354 20.673 2.63803C20.8658 3.01641 20.9371 3.40963 20.9694 3.80497C21 4.17954 21 4.6343 21 5.16144V5.8775C21 5.90121 21 5.92472 21.0001 5.94804C21.0003 6.29465 21.0006 6.6004 20.9388 6.90157C20.8844 7.16636 20.7945 7.42259 20.6716 7.6633C20.5317 7.93709 20.3405 8.17569 20.1237 8.44619C20.1092 8.46438 20.0945 8.48272 20.0797 8.50122L16.4767 13.0049C18.583 15.3608 18.505 18.9803 16.2427 21.2426C13.8995 23.5858 10.1005 23.5858 7.75737 21.2426C5.49504 18.9803 5.41702 15.3608 7.52329 13.0049L3.92036 8.50122C3.90556 8.48271 3.89086 8.46437 3.87627 8.44617C3.65953 8.17568 3.46834 7.93708 3.32847 7.6633C3.20549 7.42258 3.11561 7.16636 3.06127 6.90157C2.99946 6.6004 2.9997 6.29465 2.99998 5.94804C2.99999 5.92471 3.00001 5.90121 3.00001 5.8775L3.00001 5.16146C2.99999 4.63431 2.99998 4.17955 3.03058 3.80497C3.06288 3.40963 3.1342 3.01641 3.32699 2.63803C3.61461 2.07354 4.07355 1.6146 4.63804 1.32698C5.01642 1.13419 5.40964 1.06287 5.80498 1.03057C6.17956 0.999967 6.63432 0.999983 7.16147 1ZM9.08416 11.7544C9.43451 11.5594 9.80026 11.4022 10.1754 11.2828L5.00149 4.63064C5.00012 4.79568 5.00001 4.98343 5.00001 5.2V5.8775C5.00001 6.3336 5.00473 6.42298 5.02043 6.49948C5.03854 6.58775 5.0685 6.67315 5.1095 6.75339C5.14503 6.82294 5.19718 6.89568 5.4821 7.25183L9.08416 11.7544ZM6.273 3.00781L12.0001 10.3712L17.727 3.00781C17.488 3.00036 17.191 3 16.8 3H7.20001C6.80907 3 6.51206 3.00036 6.273 3.00781ZM18.9985 4.63067L13.8247 11.2829C14.1998 11.4023 14.5655 11.5594 14.9159 11.7544L18.5179 7.25183C18.8028 6.89568 18.855 6.82294 18.8905 6.75339C18.9315 6.67315 18.9615 6.58775 18.9796 6.49948C18.9953 6.42298 19 6.3336 19 5.8775V5.2C19 4.98344 18.9999 4.7957 18.9985 4.63067ZM14.8284 19.8284C16.3905 18.2663 16.3905 15.7337 14.8284 14.1716C13.2663 12.6095 10.7337 12.6095 9.17158 14.1716C7.60949 15.7337 7.60949 18.2663 9.17158 19.8284C10.7337 21.3905 13.2664 21.3905 14.8284 19.8284Z" fill="currentcolor"/>
</svg>