<svg viewBox="0 0 24 24" fill="none" xmlns="http://www.w3.org/2000/svg">
<path fill-rule="evenodd" clip-rule="evenodd" d="M21.6375 5.75623L12.5813 0.543726C12.4313 0.449976 12.225 0.412476 12 0.412476C11.775 0.412476 11.5688 0.468726 11.4188 0.543726L2.41875 5.77498C2.1 5.96248 1.875 6.43123 1.875 6.78748V17.2312C1.875 17.4254 1.90822 17.6527 2.03719 17.8507L2.00624 17.8687C2.09999 18.0187 2.23124 18.15 2.36249 18.225L11.4 23.4562C11.55 23.55 11.7562 23.5875 11.9812 23.5875C12.2062 23.5875 12.4125 23.5312 12.5625 23.4562L21.5625 18.225C21.8812 18.0375 22.1062 17.5687 22.1062 17.2125V6.76872C22.1062 6.61865 22.0914 6.45375 22.0222 6.30039L22.0875 6.26248C21.975 6.03748 21.8063 5.86873 21.6375 5.75623ZM15.9938 14.2687C15.2063 15.6562 13.7063 16.5937 12 16.5937C9.46875 16.5937 7.40625 14.5312 7.40625 12C7.40625 9.46872 9.46875 7.40622 12 7.40622C13.7063 7.40622 15.2063 8.34372 15.9938 9.74997L18.4313 8.34372C17.1562 6.11247 14.7563 4.59372 12 4.59372C7.9125 4.59372 4.59375 7.91247 4.59375 12C4.59375 16.0875 7.9125 19.4062 12 19.4062C14.7375 19.4062 17.1375 17.9062 18.4125 15.6937L15.9938 14.2687ZM15.3937 11.5875H16.3687V10.5937H17.1937V11.5875H18.1875V12.4125H17.1937V13.3875H16.3687V12.4125H15.3937V11.5875ZM18.8625 11.5875H19.8375V10.5937H20.6625V11.5875H21.6562V12.4125H20.6625V13.3875H19.8375V12.4125H18.8625V11.5875Z" fill="currentcolor"/>
</svg>