<svg width="21" height="20" viewBox="0 0 21 20" fill="none" xmlns="http://www.w3.org/2000/svg">
<path fill-rule="evenodd" clip-rule="evenodd" d="M9.00573 3.3335H11.6608C12.7249 3.33349 13.5726 3.33348 14.2598 3.38791C14.9646 3.44374 15.5677 3.56051 16.1278 3.83093C17.0348 4.26889 17.7884 4.97058 18.2898 5.84409C18.5995 6.38343 18.7589 6.9767 18.8648 7.67577C18.9681 8.3573 19.0285 9.20287 19.1043 10.2642L19.3118 13.1695C19.4468 15.0594 17.95 16.6668 16.0554 16.6668C15.0865 16.6668 14.1677 16.2365 13.5474 15.4921L13.2348 15.117C12.9303 14.7516 12.8387 14.6462 12.7429 14.5646C12.5154 14.3708 12.2399 14.2418 11.9454 14.191C11.8214 14.1697 11.6818 14.1668 11.2062 14.1668H9.46042C8.98477 14.1668 8.84522 14.1697 8.72118 14.191C8.42665 14.2418 8.1512 14.3708 7.92366 14.5646C7.82783 14.6462 7.73631 14.7516 7.4318 15.117L7.11917 15.4921C6.4989 16.2365 5.58006 16.6668 4.61117 16.6668C2.71653 16.6668 1.21979 15.0594 1.35478 13.1695L1.5623 10.2642C1.6381 9.20289 1.6985 8.3573 1.80175 7.67577C1.90765 6.9767 2.06709 6.38343 2.37672 5.84409C2.8782 4.97058 3.6318 4.26889 4.53881 3.83093C5.09884 3.56051 5.70196 3.44374 6.4068 3.38791C7.09396 3.33348 7.94171 3.33349 9.00573 3.3335ZM6.53841 5.04938C5.93493 5.09718 5.56197 5.18768 5.26352 5.33178C4.65885 5.62376 4.15645 6.09155 3.82213 6.67389C3.65713 6.96131 3.54029 7.32688 3.44961 7.92541C3.35741 8.53403 3.3011 9.31376 3.22224 10.4179L3.01721 13.2883C2.95113 14.2133 3.68377 15.0002 4.61117 15.0002C5.08543 15.0002 5.53519 14.7895 5.8388 14.4252L6.15143 14.05C6.16492 14.0338 6.17823 14.0178 6.19136 14.0021C6.43857 13.7052 6.6249 13.4815 6.84309 13.2957C7.29817 12.9081 7.84908 12.6501 8.43812 12.5486C8.72055 12.4999 9.01173 12.5 9.39806 12.5001C9.41857 12.5002 9.43936 12.5002 9.46042 12.5002H11.2062C11.2272 12.5002 11.248 12.5002 11.2685 12.5001C11.6548 12.5 11.946 12.4999 12.2284 12.5486C12.8175 12.6501 13.3684 12.9081 13.8235 13.2957C14.0417 13.4815 14.228 13.7052 14.4752 14.0021C14.4884 14.0179 14.5017 14.0338 14.5151 14.05L14.8278 14.4252C15.1314 14.7895 15.5811 15.0002 16.0554 15.0002C16.9828 15.0002 17.7154 14.2133 17.6494 13.2883L17.4443 10.4179C17.3655 9.31376 17.3092 8.53403 17.217 7.92542C17.1263 7.32688 17.0094 6.96131 16.8444 6.67389C16.5101 6.09155 16.0077 5.62376 15.403 5.33178C15.1046 5.18768 14.7316 5.09718 14.1282 5.04938C13.5145 5.00077 12.7328 5.00016 11.6258 5.00016H9.04075C7.93381 5.00016 7.15205 5.00077 6.53841 5.04938ZM6.99995 6.66683C7.46019 6.66683 7.83329 7.03993 7.83329 7.50016V8.3335H8.66662C9.12686 8.3335 9.49995 8.70659 9.49995 9.16683C9.49995 9.62707 9.12686 10.0002 8.66662 10.0002H7.83329V10.8335C7.83329 11.2937 7.46019 11.6668 6.99995 11.6668C6.53972 11.6668 6.16662 11.2937 6.16662 10.8335V10.0002H5.33329C4.87305 10.0002 4.49995 9.62707 4.49995 9.16683C4.49995 8.70659 4.87305 8.3335 5.33329 8.3335H6.16662V7.50016C6.16662 7.03993 6.53972 6.66683 6.99995 6.66683ZM14.5 8.3335C14.5 7.87326 14.873 7.50016 15.3333 7.50016H15.3416C15.8019 7.50016 16.175 7.87326 16.175 8.3335C16.175 8.79373 15.8019 9.16683 15.3416 9.16683H15.3333C14.873 9.16683 14.5 8.79373 14.5 8.3335ZM12 10.0002C12 9.53993 12.373 9.16683 12.8333 9.16683H12.8416C13.3019 9.16683 13.675 9.53993 13.675 10.0002C13.675 10.4604 13.3019 10.8335 12.8416 10.8335H12.8333C12.373 10.8335 12 10.4604 12 10.0002Z" fill="currentcolor"/>
</svg>